<svg xmlns="http://www.w3.org/2000/svg" viewBox="0 0 16 16" fill="currentColor">
  <path d="M4 2a2 2 0 0 0 -2 2v8a2 2 0 0 0 2 2h8a2 2 0 0 0 2 -2v-3.333333333333333a0.6666666666666666 0.6666666666666666 0 1 0 -1.3333333333333333 0v3.333333333333333a0.6666666666666666 0.6666666666666666 0 0 1 -0.6666666666666666 0.6666666666666666H4a0.6666666666666666 0.6666666666666666 0 0 1 -0.6666666666666666 -0.6666666666666666V4a0.6666666666666666 0.6666666666666666 0 0 1 0.6666666666666666 -0.6666666666666666h5.333333333333333a0.6666666666666666 0.6666666666666666 0 1 0 0 -1.3333333333333333H4Zm10.238666666666667 2.03a0.6666666666666666 0.6666666666666666 0 0 0 0.25 -0.9086666666666666 0.6733333333333333 0.6733333333333333 0 0 0 -0.9093333333333333 -0.25c-0.2353333333333333 0.13333333333333333 -0.4626666666666666 0.2826666666666666 -0.6866666666666666 0.43333333333333335 -0.41733333333333333 0.27999999999999997 -0.994 0.6926666666666665 -1.642 1.2313333333333332 -1.0946666666666665 0.9106666666666667 -2.409333333333333 2.1933333333333334 -3.4926666666666666 3.812a6.57 6.57 0 0 0 -1.164 -1.1893333333333334c-0.2846666666666666 -0.222 -0.6013333333333333 -0.44 -0.9433333333333334 -0.564h-0.0006666666666666666a0.6666666666666666 0.6666666666666666 0 0 0 -0.45933333333333326 1.2519999999999998c0.016666666666666666 0.006666666666666666 0.24666666666666665 0.09999999999999999 0.584 0.36333333333333334 0.3853333333333333 0.3 0.9173333333333332 0.8260000000000001 1.4306666666666665 1.7046666666666666a0.6666666666666666 0.6666666666666666 0 0 0 1.1553333333333333 -0.006666666666666666c1.056 -1.8606666666666665 2.5246666666666666 -3.333333333333333 3.7426666666666666 -4.346666666666666 0.6066666666666667 -0.5046666666666666 1.1466666666666665 -0.8906666666666667 1.532 -1.1493333333333333 0.19666666666666666 -0.13266666666666665 0.3966666666666666 -0.26266666666666666 0.6026666666666667 -0.3813333333333333Z" />
</svg>
