<svg xmlns="http://www.w3.org/2000/svg" viewBox="0 0 16 16" fill="currentColor">
  <path d="M10.666666666666666 9.333333333333332a3.333333333333333 3.333333333333333 0 0 1 3.33 3.1886666666666668L14 12.666666666666666v0.6666666666666666a1.3333333333333333 1.3333333333333333 0 0 1 -1.2333333333333334 1.33L12.666666666666666 14.666666666666666H3.333333333333333a1.3333333333333333 1.3333333333333333 0 0 1 -1.33 -1.2333333333333334L2 13.333333333333332v-0.6666666666666666a3.333333333333333 3.333333333333333 0 0 1 3.1886666666666668 -3.33L5.333333333333333 9.333333333333332h5.333333333333333Zm0 1.3333333333333333H5.333333333333333a2 2 0 0 0 -1.9966666666666666 1.8826666666666665L3.333333333333333 12.666666666666666v0.6666666666666666h9.333333333333332v-0.6666666666666666a2 2 0 0 0 -1.8826666666666665 -1.9966666666666666L10.666666666666666 10.666666666666666ZM8 1.3333333333333333a3.333333333333333 3.333333333333333 0 1 1 0 6.666666666666666 3.333333333333333 3.333333333333333 0 0 1 0 -6.666666666666666Zm0 1.3333333333333333a2 2 0 1 0 0 4 2 2 0 0 0 0 -4Z" />
</svg>
