<svg xmlns="http://www.w3.org/2000/svg" viewBox="0 0 16 16" fill="currentColor">
  <path d="M6 8.666666666666666a1.3333333333333333 1.3333333333333333 0 0 1 1.3333333333333333 1.3333333333333333v2.6666666666666665a1.3333333333333333 1.3333333333333333 0 0 1 -1.3333333333333333 1.3333333333333333H3.333333333333333a1.3333333333333333 1.3333333333333333 0 0 1 -1.3333333333333333 -1.3333333333333333v-2.6666666666666665a1.3333333333333333 1.3333333333333333 0 0 1 1.3333333333333333 -1.3333333333333333h2.6666666666666665Zm6.666666666666666 0a1.3333333333333333 1.3333333333333333 0 0 1 1.33 1.2333333333333334L14 10v2.6666666666666665a1.3333333333333333 1.3333333333333333 0 0 1 -1.2333333333333334 1.33L12.666666666666666 14h-2.6666666666666665a1.3333333333333333 1.3333333333333333 0 0 1 -1.33 -1.2333333333333334L8.666666666666666 12.666666666666666v-2.6666666666666665a1.3333333333333333 1.3333333333333333 0 0 1 1.2333333333333334 -1.33L10 8.666666666666666h2.6666666666666665ZM6 10H3.333333333333333v2.6666666666666665h2.6666666666666665v-2.6666666666666665Zm6.666666666666666 0h-2.6666666666666665v2.6666666666666665h2.6666666666666665v-2.6666666666666665Zm0 -8a1.3333333333333333 1.3333333333333333 0 0 1 1.33 1.2333333333333334L14 3.333333333333333v2.6666666666666665a1.3333333333333333 1.3333333333333333 0 0 1 -1.2333333333333334 1.33L12.666666666666666 7.333333333333333h-2.6666666666666665a1.3333333333333333 1.3333333333333333 0 0 1 -1.33 -1.2333333333333334L8.666666666666666 6V3.333333333333333a1.3333333333333333 1.3333333333333333 0 0 1 1.2333333333333334 -1.33L10 2h2.6666666666666665ZM6 2a1.3333333333333333 1.3333333333333333 0 0 1 1.33 1.2333333333333334L7.333333333333333 3.333333333333333v2.6666666666666665a1.3333333333333333 1.3333333333333333 0 0 1 -1.2333333333333334 1.33L6 7.333333333333333H3.333333333333333a1.3333333333333333 1.3333333333333333 0 0 1 -1.33 -1.2333333333333334L2 6V3.333333333333333a1.3333333333333333 1.3333333333333333 0 0 1 1.2333333333333334 -1.33L3.333333333333333 2h2.6666666666666665Zm6.666666666666666 1.3333333333333333h-2.6666666666666665v2.6666666666666665h2.6666666666666665V3.333333333333333ZM6 3.333333333333333H3.333333333333333v2.6666666666666665h2.6666666666666665V3.333333333333333Z" />
</svg>
