<svg xmlns="http://www.w3.org/2000/svg" viewBox="0 0 16 16" fill="currentColor">
  <path d="M9.606666666666666 1.5286666666666666a6.6306666666666665 6.6306666666666665 0 0 1 1.8333333333333333 0.7599999999999999 0.6666666666666666 0.6666666666666666 0 0 1 0.3133333333333333 0.6793333333333332c-0.07533333333333334 0.45933333333333326 0.03933333333333333 0.8106666666666666 0.2533333333333333 1.0253333333333332 0.21466666666666667 0.21466666666666667 0.5666666666666667 0.32866666666666666 1.0253333333333332 0.2533333333333333a0.6666666666666666 0.6666666666666666 0 0 1 0.6799999999999999 0.3133333333333333 6.632 6.632 0 0 1 0.7599999999999999 1.8333333333333333 0.6666666666666666 0.6666666666666666 0 0 1 -0.25866666666666666 0.7026666666666667c-0.3786666666666666 0.2713333333333333 -0.5466666666666666 0.6 -0.5466666666666666 0.904 0 0.304 0.16799999999999998 0.6333333333333333 0.5466666666666666 0.9046666666666666a0.6666666666666666 0.6666666666666666 0 0 1 0.25866666666666666 0.702 6.631333333333332 6.631333333333332 0 0 1 -0.7599999999999999 1.8333333333333333 0.6666666666666666 0.6666666666666666 0 0 1 -0.6799999999999999 0.3133333333333333c-0.45933333333333326 -0.07533333333333334 -0.81 0.03933333333333333 -1.0246666666666666 0.2533333333333333 -0.21466666666666667 0.21466666666666667 -0.3293333333333333 0.5666666666666667 -0.2533333333333333 1.0253333333333332a0.6666666666666666 0.6666666666666666 0 0 1 -0.3133333333333333 0.6799999999999999 6.632 6.632 0 0 1 -1.8346666666666664 0.7599999999999999 0.6666666666666666 0.6666666666666666 0 0 1 -0.702 -0.25866666666666666c-0.27066666666666667 -0.3786666666666666 -0.6 -0.5466666666666666 -0.904 -0.5466666666666666 -0.30333333333333334 0 -0.6333333333333333 0.16799999999999998 -0.904 0.5466666666666666a0.6666666666666666 0.6666666666666666 0 0 1 -0.702 0.25866666666666666 6.632 6.632 0 0 1 -1.8346666666666664 -0.7599999999999999 0.6666666666666666 0.6666666666666666 0 0 1 -0.3133333333333333 -0.6799999999999999c0.076 -0.4586666666666666 -0.038 -0.81 -0.2533333333333333 -1.0246666666666666 -0.214 -0.21466666666666667 -0.5653333333333332 -0.3293333333333333 -1.0246666666666666 -0.2533333333333333a0.6666666666666666 0.6666666666666666 0 0 1 -0.6793333333333332 -0.3133333333333333 6.631333333333332 6.631333333333332 0 0 1 -0.7599999999999999 -1.8346666666666664 0.6666666666666666 0.6666666666666666 0 0 1 0.25866666666666666 -0.702c0.37799999999999995 -0.27066666666666667 0.5466666666666666 -0.6 0.5466666666666666 -0.904 0 -0.30333333333333334 -0.16866666666666666 -0.6333333333333333 -0.5466666666666666 -0.904a0.6666666666666666 0.6666666666666666 0 0 1 -0.25866666666666666 -0.702 6.6306666666666665 6.6306666666666665 0 0 1 0.7599999999999999 -1.8339999999999999 0.6666666666666666 0.6666666666666666 0 0 1 0.6793333333333332 -0.3133333333333333c0.45933333333333326 0.07533333333333334 0.8106666666666666 -0.03866666666666667 1.0253333333333332 -0.2533333333333333 0.21466666666666667 -0.21466666666666667 0.32866666666666666 -0.5666666666666667 0.2533333333333333 -1.0253333333333332a0.6666666666666666 0.6666666666666666 0 0 1 0.3133333333333333 -0.6793333333333332 6.631333333333332 6.631333333333332 0 0 1 1.8333333333333333 -0.7599999999999999 0.6666666666666666 0.6666666666666666 0 0 1 0.7026666666666667 0.25866666666666666c0.2713333333333333 0.37799999999999995 0.6 0.5466666666666666 0.904 0.5466666666666666 0.304 0 0.6333333333333333 -0.16866666666666666 0.9046666666666666 -0.5466666666666666a0.6666666666666666 0.6666666666666666 0 0 1 0.702 -0.25866666666666666Zm0.06799999999999999 1.4066666666666665C9.236666666666666 3.373333333333333 8.661333333333333 3.6666666666666665 8 3.6666666666666665s-1.2366666666666666 -0.29266666666666663 -1.6746666666666665 -0.732a5.295999999999999 5.295999999999999 0 0 0 -0.7226666666666667 0.3c0.0006666666666666666 0.62 -0.1993333333333333 1.2333333333333334 -0.6666666666666666 1.7013333333333334 -0.46733333333333327 0.46733333333333327 -1.0813333333333333 0.6673333333333332 -1.7013333333333334 0.6666666666666666 -0.11733333333333332 0.23199999999999998 -0.21733333333333332 0.4733333333333333 -0.3 0.7226666666666667 0.43933333333333335 0.438 0.732 1.0133333333333332 0.732 1.6746666666666665s-0.29266666666666663 1.2366666666666666 -0.732 1.6746666666666665c0.08266666666666667 0.24933333333333332 0.18333333333333335 0.4913333333333333 0.3 0.7233333333333333 0.62 -0.0013333333333333333 1.2333333333333334 0.19866666666666666 1.7013333333333334 0.6666666666666666 0.46733333333333327 0.4666666666666666 0.6673333333333332 1.0806666666666667 0.6666666666666666 1.7006666666666668 0.2313333333333333 0.11733333333333332 0.4733333333333333 0.21733333333333332 0.7226666666666667 0.3 0.438 -0.43933333333333335 1.0133333333333332 -0.732 1.6746666666666665 -0.732s1.2366666666666666 0.29333333333333333 1.6746666666666665 0.732a5.295333333333333 5.295333333333333 0 0 0 0.7233333333333333 -0.3c-0.0013333333333333333 -0.62 0.19866666666666666 -1.2333333333333334 0.6666666666666666 -1.7013333333333334 0.4666666666666666 -0.46733333333333327 1.0806666666666667 -0.6666666666666666 1.7006666666666668 -0.6666666666666666 0.11733333333333332 -0.2313333333333333 0.21733333333333332 -0.4733333333333333 0.3 -0.7226666666666667 -0.43933333333333335 -0.438 -0.732 -1.0133333333333332 -0.732 -1.6746666666666665s0.29333333333333333 -1.2366666666666666 0.732 -1.6746666666666665a5.293333333333333 5.293333333333333 0 0 0 -0.3 -0.7226666666666667c-0.62 0.0006666666666666666 -1.2333333333333334 -0.1993333333333333 -1.7013333333333334 -0.6666666666666666 -0.46733333333333327 -0.46733333333333327 -0.6666666666666666 -1.0813333333333333 -0.6666666666666666 -1.7013333333333334a5.296666666666667 5.296666666666667 0 0 0 -0.7226666666666667 -0.3ZM8 5.333333333333333a2.6666666666666665 2.6666666666666665 0 1 1 0 5.333333333333333 2.6666666666666665 2.6666666666666665 0 0 1 0 -5.333333333333333Zm0 1.3333333333333333a1.3333333333333333 1.3333333333333333 0 1 0 0 2.6666666666666665 1.3333333333333333 1.3333333333333333 0 0 0 0 -2.6666666666666665Z" />
</svg>
