<svg xmlns="http://www.w3.org/2000/svg" viewBox="0 0 16 16" fill="currentColor">
  <path d="M13.631333333333332 4.070666666666666a0.6666666666666666 0.6666666666666666 0 0 1 0.298 0.8939999999999999c-0.2353333333333333 0.47133333333333327 -0.6666666666666666 0.884 -1.1013333333333333 1.1733333333333333 -0.19399999999999998 0.12933333333333333 -0.41333333333333333 0.25066666666666665 -0.6439999999999999 0.3446666666666667 0.1933333333333333 0.4733333333333333 0.33266666666666667 0.9833333333333334 0.4106666666666666 1.5173333333333332H14a0.6666666666666666 0.6666666666666666 0 1 1 0 1.3333333333333333h-1.3413333333333333a6.664 6.664 0 0 1 -0.4933333333333333 2.218c0.3813333333333333 0.22 0.6419999999999999 0.5733333333333333 0.806 0.9A3.6666666666666665 3.6666666666666665 0 0 1 13.333333333333332 14a0.6666666666666666 0.6666666666666666 0 0 1 -1.3286666666666667 0.078L12 14c0 -0.24933333333333332 -0.06733333333333333 -0.6439999999999999 -0.22133333333333333 -0.952 -0.08666666666666667 -0.17333333333333334 -0.17333333333333334 -0.2726666666666666 -0.25666666666666665 -0.32599999999999996C10.686666666666667 13.896 9.451333333333332 14.666666666666666 8 14.666666666666666c-1.4513333333333334 0 -2.6866666666666665 -0.7706666666666666 -3.5220000000000002 -1.9446666666666665 -0.08399999999999999 0.05333333333333333 -0.16999999999999998 0.15333333333333332 -0.25666666666666665 0.32666666666666666A2.3426666666666662 2.3426666666666662 0 0 0 4 14a0.6666666666666666 0.6666666666666666 0 1 1 -1.3333333333333333 0 3.6666666666666665 3.6666666666666665 0 0 1 0.362 -1.548c0.16399999999999998 -0.32799999999999996 0.42466666666666664 -0.6799999999999999 0.806 -0.9A6.663333333333332 6.663333333333332 0 0 1 3.341333333333333 9.333333333333332H2a0.6666666666666666 0.6666666666666666 0 1 1 0 -1.3333333333333333h1.4053333333333333a6.52 6.52 0 0 1 0.4106666666666666 -1.5173333333333332 3.6546666666666665 3.6546666666666665 0 0 1 -0.6439999999999999 -0.3446666666666667c-0.434 -0.28933333333333333 -0.8666666666666667 -0.702 -1.1013333333333333 -1.1733333333333333a0.6666666666666666 0.6666666666666666 0 0 1 1.1533333333333333 -0.6639999999999999l0.03866666666666667 0.06799999999999999c0.09799999999999999 0.1953333333333333 0.3333333333333333 0.44933333333333336 0.6486666666666666 0.6599999999999999C4.235333333333333 5.244666666666666 4.520666666666666 5.333333333333333 4.666666666666666 5.333333333333333h6.666666666666666c0.146 0 0.43133333333333335 -0.08866666666666667 0.7553333333333333 -0.30466666666666664 0.2766666666666666 -0.18466666666666667 0.49066666666666664 -0.40199999999999997 0.6053333333333333 -0.584l0.043333333333333335 -0.076a0.6666666666666666 0.6666666666666666 0 0 1 0.8939999999999999 -0.298ZM10.805333333333332 6.666666666666666H5.1946666666666665C4.862666666666666 7.335999999999999 4.666666666666666 8.134666666666666 4.666666666666666 9c0 2.206 1.2246666666666666 3.8486666666666665 2.6666666666666665 4.242666666666667V8.666666666666666a0.6666666666666666 0.6666666666666666 0 1 1 1.3333333333333333 0v4.576c1.4419999999999997 -0.39399999999999996 2.6666666666666665 -2.0366666666666666 2.6666666666666665 -4.242666666666667 0 -0.8653333333333333 -0.19599999999999998 -1.664 -0.528 -2.333333333333333ZM8 2a3.332 3.332 0 0 1 2.8866666666666667 1.6666666666666665L11.466666666666665 4.666666666666666H4.533333333333333l0.5793333333333333 -1A3.332 3.332 0 0 1 8 2Z" />
</svg>
